<?xml version="1.0" encoding="iso-8859-1"?>
<!-- Generator: Adobe Illustrator 19.1.0, SVG Export Plug-In . SVG Version: 6.00 Build 0)  -->
<svg version="1.1" id="Capa_1" xmlns="http://www.w3.org/2000/svg" xmlns:xlink="http://www.w3.org/1999/xlink" x="0px" y="0px"
	 viewBox="0 0 297.256 297.256" style="enable-background:new 0 0 297.256 297.256;" xml:space="preserve">
<g>
	<path style="fill:#DE3100;" d="M117.767,281.252c10.069,0,20.517-4.158,30.86-14.08c10.342,9.919,20.795,14.08,30.861,14.08
		c34.211,0,64.034-47.992,70.512-81.032c8.382-42.763,3.867-90.711-40.52-100.645c-5.893-1.319-11.275-1.896-16.178-1.896
		c-33.541,0-44.676,26.947-44.676,26.947s-11.137-26.944-44.674-26.947c-4.903,0-10.281,0.575-16.178,1.896
		c-44.388,9.934-48.903,57.882-40.518,100.645C53.734,233.257,83.561,281.252,117.767,281.252z"/>
	<path d="M264.841,132.946c-7.95-26.231-25.885-43.17-51.866-48.984c-1.125-0.252-2.243-0.476-3.359-0.686
		c0.674-0.605,1.339-1.224,1.987-1.871c22.242-22.242,18.559-60.494,18.391-62.112l-0.67-6.462l-6.462-0.67
		c-0.315-0.033-3.208-0.319-7.769-0.319c-13.308,0-38.063,2.431-54.343,18.71c-5.191,5.19-8.956,11.256-11.697,17.521
		c-4.002-12.772-10.07-27.663-19.282-44.001c-2.169-3.847-7.05-5.21-10.897-3.039c-3.85,2.17-5.21,7.049-3.04,10.898
		c24.289,43.078,24.902,75.246,24.828,80.441c-8.719-5.67-20.785-10.419-36.707-10.419c-0.001,0-0.004,0-0.006,0
		c-6.288,0-12.904,0.631-19.668,2.144c-25.98,5.815-43.916,22.685-51.866,48.916c-7.354,24.263-4.524,51.616-0.857,70.318
		c3.896,19.871,14.335,42.154,27.926,59.631c7.75,9.966,16.168,17.932,25.021,23.691c10.813,7.037,22.005,10.601,33.264,10.601
		c10.8,0,21.136-3.233,30.86-9.627c9.726,6.395,20.061,9.624,30.861,9.624c11.26,0,22.452-3.568,33.266-10.605
		c8.852-5.76,17.271-13.735,25.02-23.7c13.591-17.476,24.03-39.775,27.927-59.65C269.367,184.594,272.193,157.207,264.841,132.946z
		 M87.776,99.575c5.896-1.32,11.274-1.896,16.178-1.896c33.537,0.003,44.674,26.947,44.674,26.947s11.135-26.947,44.676-26.947
		c4.902,0,10.284,0.576,16.178,1.896c44.387,9.934,48.901,57.882,40.52,100.645c-6.478,33.04-36.301,81.032-70.512,81.032
		c-10.066,0-20.52-4.161-30.861-14.08c-10.344,9.922-20.791,14.08-30.86,14.08c-34.206,0-64.033-47.994-70.509-81.032
		C38.872,157.457,43.388,109.508,87.776,99.575z M214.3,27.845c-0.093,10.427-1.989,30.224-14.011,42.245
		c-12.291,12.288-33.057,13.935-42.236,14.02c0.093-10.426,1.988-30.223,14.01-42.244C184.353,29.577,205.119,27.93,214.3,27.845z"
		/>
	<path style="fill:#96B941;" d="M200.289,70.09c12.021-12.021,13.918-31.818,14.011-42.245c-9.181,0.085-29.947,1.731-42.237,14.021
		c-12.021,12.021-13.917,31.818-14.01,42.244C167.232,84.025,187.998,82.379,200.289,70.09z"/>
</g>
<g>
</g>
<g>
</g>
<g>
</g>
<g>
</g>
<g>
</g>
<g>
</g>
<g>
</g>
<g>
</g>
<g>
</g>
<g>
</g>
<g>
</g>
<g>
</g>
<g>
</g>
<g>
</g>
<g>
</g>
</svg>
