<?xml version="1.0" encoding="iso-8859-1"?>
<!-- Generator: Adobe Illustrator 18.0.0, SVG Export Plug-In . SVG Version: 6.00 Build 0)  -->
<!DOCTYPE svg PUBLIC "-//W3C//DTD SVG 1.1//EN" "http://www.w3.org/Graphics/SVG/1.1/DTD/svg11.dtd">
<svg version="1.1" id="Capa_1" xmlns="http://www.w3.org/2000/svg" xmlns:xlink="http://www.w3.org/1999/xlink" x="0px" y="0px"
	 viewBox="0 0 406.5 406.5" style="enable-background:new 0 0 406.5 406.5;" xml:space="preserve">
<g id="XMLID_49_">
	<g>
		<path style="fill:#4D4D4D;" d="M396.253,184.539v33.71c0,3.87-3.14,7-7,7c-5.51,0-9.68-1.67-13-3.94v101.69
			c0,45.91-37.35,83.25-83.25,83.25h-179.51c-45.9,0-83.24-37.34-83.24-83.25v-101.69c-3.32,2.27-7.5,3.94-13,3.94
			c-3.87,0-7-3.13-7-7v-33.71c0-16.15,13.13-29.29,29.28-29.29h14.72v-72.58c0-45.44,36.98-82.42,82.42-82.42h134.16
			c45.44,0,82.42,36.98,82.42,82.42v72.58h13.71C383.113,155.249,396.253,168.389,396.253,184.539z M382.253,208.179v-23.64
			c0-8.43-6.86-15.29-15.29-15.29H39.533c-8.43,0-15.28,6.86-15.28,15.29v23.65c0.97-0.95,1.99-2.11,3.19-3.51
			c4.16-4.82,9.85-11.43,20.81-11.43s16.65,6.61,20.81,11.43c3.82,4.44,5.85,6.57,10.2,6.57c4.34,0,6.37-2.13,10.19-6.57
			c4.16-4.82,9.85-11.43,20.81-11.43s16.65,6.61,20.8,11.43c3.82,4.44,5.85,6.57,10.2,6.57c4.35,0,6.38-2.13,10.2-6.57
			c4.15-4.82,9.84-11.43,20.8-11.43c10.96,0,16.65,6.61,20.8,11.43c3.82,4.44,5.85,6.57,10.2,6.57c4.35,0,6.38-2.13,10.19-6.57
			c4.16-4.82,9.85-11.43,20.81-11.43c10.96,0,16.65,6.61,20.8,11.43c3.82,4.44,5.85,6.57,10.19,6.57c4.35,0,6.38-2.13,10.2-6.57
			c4.15-4.82,9.84-11.43,20.8-11.43s16.65,6.61,20.81,11.43c3.82,4.44,5.85,6.57,10.19,6.57c4.35,0,6.38-2.13,10.2-6.57
			c4.15-4.82,9.84-11.43,20.8-11.43s16.65,6.61,20.8,11.43C380.253,206.079,381.283,207.239,382.253,208.179z M362.253,322.999
			v-72.75h-318v72.75c0,38.19,31.06,69.25,69.24,69.25h179.51C331.183,392.249,362.253,361.189,362.253,322.999z M362.253,236.249
			v-28.14c-1.16-0.57-2.43-0.86-4-0.86c-4.35,0-6.37,2.13-10.19,6.57c-4.16,4.82-9.85,11.43-20.81,11.43s-16.65-6.61-20.8-11.43
			c-3.82-4.44-5.85-6.57-10.2-6.57c-4.34,0-6.37,2.13-10.19,6.57c-4.16,4.82-9.85,11.43-20.81,11.43c-10.96,0-16.65-6.61-20.8-11.43
			c-3.82-4.44-5.85-6.57-10.19-6.57c-4.35,0-6.38,2.13-10.2,6.57c-4.15,4.82-9.84,11.43-20.8,11.43c-10.96,0-16.65-6.61-20.8-11.43
			c-3.82-4.44-5.85-6.57-10.2-6.57c-4.35,0-6.38,2.13-10.2,6.57c-4.15,4.82-9.84,11.43-20.8,11.43c-10.96,0-16.65-6.61-20.81-11.43
			c-3.82-4.44-5.85-6.57-10.19-6.57c-4.35,0-6.38,2.13-10.2,6.57c-4.15,4.82-9.84,11.43-20.8,11.43s-16.66-6.61-20.81-11.43
			c-3.82-4.44-5.85-6.57-10.2-6.57c-1.57,0-2.84,0.29-4,0.86v28.14H362.253z M339.253,155.249v-72.58
			c0-37.72-30.69-68.42-68.42-68.42h-134.16c-37.73,0-68.42,30.7-68.42,68.42v72.58h20v-72.58c0-26.7,21.72-48.42,48.42-48.42
			h134.16c26.7,0,48.42,21.72,48.42,48.42v72.58H339.253z M305.253,155.249v-72.58c0-18.98-15.44-34.42-34.42-34.42h-134.16
			c-18.98,0-34.42,15.44-34.42,34.42v72.58H305.253z"/>
		<path style="fill:#45A1DB;" d="M382.253,184.539v23.64c-0.97-0.94-2-2.1-3.2-3.5c-4.15-4.82-9.84-11.43-20.8-11.43
			s-16.65,6.61-20.8,11.43c-3.82,4.44-5.85,6.57-10.2,6.57c-4.34,0-6.37-2.13-10.19-6.57c-4.16-4.82-9.85-11.43-20.81-11.43
			s-16.65,6.61-20.8,11.43c-3.82,4.44-5.85,6.57-10.2,6.57c-4.34,0-6.37-2.13-10.19-6.57c-4.15-4.82-9.84-11.43-20.8-11.43
			c-10.96,0-16.65,6.61-20.81,11.43c-3.81,4.44-5.84,6.57-10.19,6.57c-4.35,0-6.38-2.13-10.2-6.57c-4.15-4.82-9.84-11.43-20.8-11.43
			c-10.96,0-16.65,6.61-20.8,11.43c-3.82,4.44-5.85,6.57-10.2,6.57c-4.35,0-6.38-2.13-10.2-6.57c-4.15-4.82-9.84-11.43-20.8-11.43
			s-16.65,6.61-20.81,11.43c-3.82,4.44-5.85,6.57-10.19,6.57c-4.35,0-6.38-2.13-10.2-6.57c-4.16-4.82-9.85-11.43-20.81-11.43
			s-16.65,6.61-20.81,11.43c-1.2,1.4-2.22,2.56-3.19,3.51v-23.65c0-8.43,6.85-15.29,15.28-15.29h327.43
			C375.393,169.249,382.253,176.109,382.253,184.539z"/>
		<path style="fill:#EA6081;" d="M362.253,250.249v72.75c0,38.19-31.07,69.25-69.25,69.25h-179.51c-38.18,0-69.24-31.06-69.24-69.25
			v-72.75H362.253z"/>
		<path style="fill:#E54866;" d="M362.253,208.109v28.14h-318v-28.14c1.16-0.57,2.43-0.86,4-0.86c4.35,0,6.38,2.13,10.2,6.57
			c4.15,4.82,9.85,11.43,20.81,11.43s16.65-6.61,20.8-11.43c3.82-4.44,5.85-6.57,10.2-6.57c4.34,0,6.37,2.13,10.19,6.57
			c4.16,4.82,9.85,11.43,20.81,11.43c10.96,0,16.65-6.61,20.8-11.43c3.82-4.44,5.85-6.57,10.2-6.57c4.35,0,6.38,2.13,10.2,6.57
			c4.15,4.82,9.84,11.43,20.8,11.43c10.96,0,16.65-6.61,20.8-11.43c3.82-4.44,5.85-6.57,10.2-6.57c4.34,0,6.37,2.13,10.19,6.57
			c4.15,4.82,9.84,11.43,20.8,11.43c10.96,0,16.65-6.61,20.81-11.43c3.82-4.44,5.85-6.57,10.19-6.57c4.35,0,6.38,2.13,10.2,6.57
			c4.15,4.82,9.84,11.43,20.8,11.43s16.65-6.61,20.81-11.43c3.82-4.44,5.84-6.57,10.19-6.57
			C359.823,207.249,361.093,207.539,362.253,208.109z"/>
		<path style="fill:#EA6081;" d="M339.253,82.669v72.58h-20v-72.58c0-26.7-21.72-48.42-48.42-48.42h-134.16
			c-26.7,0-48.42,21.72-48.42,48.42v72.58h-20v-72.58c0-37.72,30.69-68.42,68.42-68.42h134.16
			C308.563,14.249,339.253,44.949,339.253,82.669z"/>
	</g>
	<g>
	</g>
</g>
<g>
</g>
<g>
</g>
<g>
</g>
<g>
</g>
<g>
</g>
<g>
</g>
<g>
</g>
<g>
</g>
<g>
</g>
<g>
</g>
<g>
</g>
<g>
</g>
<g>
</g>
<g>
</g>
<g>
</g>
</svg>
